<svg width="7" height="8" viewBox="0 0 7 8" fill="none" xmlns="http://www.w3.org/2000/svg">
<path d="M6.11133 0.867188H2.38477V3.14648H3.1582C4.33008 3.14648 5.14062 3.27344 5.58984 3.52734C6.22656 3.89062 6.54492 4.45703 6.54492 5.22656C6.54492 6.04297 6.16797 6.67188 5.41406 7.11328C4.95312 7.38281 4.0957 7.51758 2.8418 7.51758H1.23047V5.66699H0V4.96777H1.23047V0H6.11133V0.867188ZM2.38477 4.96777H4V5.66699H2.38477V6.65039H2.92969C3.78125 6.65039 4.39062 6.54688 4.75781 6.33984C5.12891 6.13281 5.31445 5.79297 5.31445 5.32031C5.31445 4.84766 5.14453 4.51172 4.80469 4.3125C4.46484 4.11328 3.89648 4.01367 3.09961 4.01367H2.38477V4.96777Z" fill="black"/>
</svg>
